<svg width="64" height="64" viewBox="0 0 64 64" fill="none" xmlns="http://www.w3.org/2000/svg">
  <!-- Background Circle -->
  <circle cx="32" cy="32" r="32" fill="url(#gageGradient)"/>
  
  <!-- Border Ring -->
  <circle cx="32" cy="32" r="30" fill="none" stroke="#F59E0B" stroke-width="2"/>
  
  <!-- Face silhouette (simplified) -->
  <ellipse cx="32" cy="28" rx="18" ry="20" fill="#1E3A8A"/>
  
  <!-- Hair -->
  <path d="M14 20 C14 12, 22 8, 32 8 C42 8, 50 12, 50 20 L48 18 C48 14, 40 12, 32 12 C24 12, 16 14, 16 18 Z" fill="#8B4513"/>
  
  <!-- Eyes -->
  <circle cx="26" cy="26" r="2" fill="#FFFFFF"/>
  <circle cx="38" cy="26" r="2" fill="#FFFFFF"/>
  <circle cx="26" cy="26" r="1" fill="#1E3A8A"/>
  <circle cx="38" cy="26" r="1" fill="#1E3A8A"/>
  
  <!-- Nose -->
  <ellipse cx="32" cy="32" rx="1" ry="2" fill="#F59E0B"/>
  
  <!-- Smile -->
  <path d="M26 36 Q32 42 38 36" stroke="#F59E0B" stroke-width="2" fill="none" stroke-linecap="round"/>
  
  <!-- Crown accent -->
  <path d="M20 12 L24 8 L28 12 L32 6 L36 12 L40 8 L44 12" stroke="#F59E0B" stroke-width="2" fill="none" stroke-linecap="round"/>
  
  <!-- Initials "GC" -->
  <text x="32" y="52" text-anchor="middle" fill="#F59E0B" font-family="Arial, sans-serif" font-weight="bold" font-size="8">GC</text>
  
  <!-- Gradient Definition -->
  <defs>
    <linearGradient id="gageGradient" x1="0%" y1="0%" x2="100%" y2="100%">
      <stop offset="0%" style="stop-color:#1E3A8A;stop-opacity:1" />
      <stop offset="50%" style="stop-color:#3B82F6;stop-opacity:1" />
      <stop offset="100%" style="stop-color:#1E3A8A;stop-opacity:1" />
    </linearGradient>
  </defs>
</svg>